<?xml version="1.0" encoding="iso-8859-1"?>
<!-- Generator: Adobe Illustrator 16.0.0, SVG Export Plug-In . SVG Version: 6.00 Build 0)  -->
<!DOCTYPE svg PUBLIC "-//W3C//DTD SVG 1.1//EN" "http://www.w3.org/Graphics/SVG/1.1/DTD/svg11.dtd">
<svg xmlns="http://www.w3.org/2000/svg" xmlns:xlink="http://www.w3.org/1999/xlink" version="1.1" id="Capa_1" x="0px" y="0px" width="512px" height="512px" viewBox="0 0 379.999 379.999" style="enable-background:new 0 0 379.999 379.999;" xml:space="preserve">
<g>
	<g>
		<path d="M379.62,269.319c-8.87-41.607-20.549-82.79-34.705-122.406c-14.158-39.615-31.23-78.877-50.744-116.693    c-2.3-4.458-6.422-7.697-11.296-8.878c-4.879-1.181-10.024-0.186-14.11,2.725L25.81,197.216    c-3.742-2.118-8.276-2.861-12.777-1.718c-9.256,2.356-14.852,11.773-12.494,21.03c4.196,16.482,9.066,32.474,14.684,48.198    c5.618,15.723,11.986,31.175,19.186,46.58c4.044,8.651,14.34,12.39,22.994,8.345c4.203-1.965,7.238-5.41,8.794-9.422l48.688-3.279    l1.74,35.738c0.081,1.715,0.418,3.392,0.984,4.979c0.958,2.676,2.566,5.101,4.717,7.034c3.43,3.085,7.943,4.675,12.552,4.413    l97.723-5.535c9.405-0.532,16.655-8.497,16.306-17.914l-1.406-37.646l116.364-7.838c5.005-0.338,9.617-2.83,12.642-6.834    C379.526,279.343,380.664,274.225,379.62,269.319z M76.225,274.883c-3.012-10.523-5.84-19.662-9.077-28.719    c-3.237-9.054-6.839-17.917-11.179-27.965l38.994-27.791c11.749,26.514,21.315,53.292,29.038,81.252L76.225,274.883z     M150.326,323.593l-0.925-18.968l63.57-4.282l0.733,19.661L150.326,323.593z" fill="#FFDA44"/>
	</g>
</g>
<g>
</g>
<g>
</g>
<g>
</g>
<g>
</g>
<g>
</g>
<g>
</g>
<g>
</g>
<g>
</g>
<g>
</g>
<g>
</g>
<g>
</g>
<g>
</g>
<g>
</g>
<g>
</g>
<g>
</g>
</svg>
